<svg width="50" height="50" viewBox="0 0 50 50" fill="none" xmlns="http://www.w3.org/2000/svg">
<path d="M21.047 0C19.7928 0 18.7207 0.846484 18.4798 2.02148L17.6053 6.30859C15.4563 7.0845 13.4693 8.16851 11.7244 9.53613L7.41849 8.12012C6.2324 7.73012 4.92742 8.1984 4.29903 9.2334L0.351112 15.7666C-0.274663 16.8041 -0.0469113 18.1213 0.898297 18.9062L4.35016 21.7725C4.17065 22.8258 4.05356 23.8982 4.05356 25C4.05356 26.1018 4.17065 27.1742 4.35016 28.2275L0.898297 31.0938C-0.0469113 31.8787 -0.274663 33.1959 0.351112 34.2334L4.29903 40.7666C4.9248 41.8041 6.2324 42.2723 7.41849 41.8848L11.7244 40.4688C13.4687 41.8355 15.4573 42.9158 17.6053 43.6914L18.4798 47.9785C18.7207 49.1535 19.7928 50 21.047 50H28.953C30.2072 50 31.2793 49.1535 31.5202 47.9785L32.3947 43.6914C34.5437 42.9155 36.5307 41.8315 38.2756 40.4639L42.5815 41.8799C43.7676 42.2699 45.0726 41.8041 45.701 40.7666L49.6489 34.2285C50.2747 33.191 50.0469 31.8787 49.1017 31.0938L45.6498 28.2275C45.8294 27.1742 45.9464 26.1018 45.9464 25C45.9464 23.8982 45.8294 22.8258 45.6498 21.7725L49.1017 18.9062C50.0469 18.1213 50.2747 16.8041 49.6489 15.7666L45.701 9.2334C45.0752 8.1959 43.7676 7.72773 42.5815 8.11523L38.2756 9.53125C36.5313 8.16448 34.5427 7.08415 32.3947 6.30859L31.5202 2.02148C31.2793 0.846484 30.2072 0 28.953 0H21.047ZM25 15C30.7838 15 35.4732 19.4775 35.4732 25C35.4732 30.5225 30.7838 35 25 35C19.2162 35 14.5268 30.5225 14.5268 25C14.5268 19.4775 19.2162 15 25 15Z" fill="#FF7A00"/>
</svg>
